<?xml version="1.0" encoding="UTF-8" standalone="no"?>
<!-- Generator: Adobe Illustrator 26.1.0, SVG Export Plug-In . SVG Version: 6.00 Build 0)  -->

<svg
   version="1.1"
   id="svg8"
   inkscape:version="1.4.2 (f4327f4, 2025-05-13)"
   sodipodi:docname="Logo-dark.svg"
   x="0px"
   y="0px"
   viewBox="0 0 309.7 309.7"
   style="enable-background:new 0 0 309.7 309.7;"
   xml:space="preserve"
   xmlns:inkscape="http://www.inkscape.org/namespaces/inkscape"
   xmlns:sodipodi="http://sodipodi.sourceforge.net/DTD/sodipodi-0.dtd"
   xmlns="http://www.w3.org/2000/svg"
   xmlns:svg="http://www.w3.org/2000/svg"><defs
   id="defs1" />
<style
   type="text/css"
   id="style1">
	.st0{fill-rule:evenodd;clip-rule:evenodd;fill:#F9F9F9;}
	.st1{fill:#B728E2;}
	.st2{fill:#F036A0;}
	.st3{fill:#90209E;}
	.st4{fill:#EB42C3;}
	.st5{fill:#B42191;}
	.st6{fill:#D02472;}
	.st7{fill:#FE945D;}
	.st8{fill:#DE2F58;}
	.st9{fill:#AE69DD;}
	.st10{fill:#FBCC5A;}
	.st11{fill:#FB7051;}
	.st12{fill:#FB3573;}
	.st13{fill:#FD7A85;}
	.st14{fill:#F942A0;}
	.st15{fill:#B1218F;}
	.st16{fill:#631FA4;}
	.st17{fill:#B61F90;}
	.st18{fill:#64177A;}
	.st19{fill:#F93D56;}
	.st20{fill:#581471;}
	.st21{fill:#A757FE;}
	.st22{fill:#EA40C2;}
</style>
<sodipodi:namedview
   bordercolor="#666666"
   borderopacity="1.0"
   id="base"
   inkscape:current-layer="g924"
   inkscape:cx="141.95169"
   inkscape:cy="244.12862"
   inkscape:document-rotation="0"
   inkscape:document-units="mm"
   inkscape:pageopacity="0.0"
   inkscape:pageshadow="2"
   inkscape:window-height="1121"
   inkscape:window-maximized="1"
   inkscape:window-width="1920"
   inkscape:window-x="-9"
   inkscape:window-y="-9"
   inkscape:zoom="2.8284271"
   pagecolor="#ffffff"
   showgrid="false"
   inkscape:showpageshadow="2"
   inkscape:pagecheckerboard="0"
   inkscape:deskcolor="#d1d1d1">
	</sodipodi:namedview>
<g
   id="layer1"
   inkscape:groupmode="layer"
   inkscape:label="Layer 1">
	<circle
   id="path886"
   class="st0"
   cx="154.9"
   cy="154.9"
   r="154.9"
   style="fill:#333333" />
	<g
   id="g924"
   transform="translate(44.927186,-176.85033)">
		<path
   id="path880"
   sodipodi:nodetypes="ccccccc"
   class="st1"
   d="M77.6,367.7l12.2,27.7l20.2,69.2l1.1-93.5l-19.7,6.8l-3.8-14.8    L77.6,367.7z" />
		<path
   id="path875"
   sodipodi:nodetypes="ccccc"
   class="st2"
   d="m 76.1,321.56094 0.3,44.23906 1.3,2.1 9.8,-4.4 z" />
		<path
   id="path882"
   sodipodi:nodetypes="cccccccc"
   class="st3"
   d="M72.2,361.5l4.2,4.3l1.3,1.9l12.1,27.7l20.2,69.2l-6.6-20.4    l-46.6-78.2L72.2,361.5z" />
		<path
   id="path903"
   sodipodi:nodetypes="ccccccccc"
   class="st4"
   d="m 110.4,353.6 2.4,17.9 -21.4,6.4 L 87.2,363.6 76.096094,321.57891 81.2,332.4 l 2,-7.5 15.5,-6.4 z" />
		<path
   id="path893"
   sodipodi:nodetypes="ccccccccccc"
   class="st5"
   d="m 180.5,331.4 -37.6,35.8 -0.4,-9.5 -29.38281,-11.98438 -2.72266,7.89219 L 110.5,371.7 l -0.4,58.1 9.7,3.8 17.6,-60.2 11.9,7.1 z" />
		<path
   id="path899"
   sodipodi:nodetypes="cccc"
   class="st6"
   d="M 58.6,366.4 72.3,361.6 39.204688,332.38438 Z" />
		<path
   id="path847"
   class="st7"
   d="m 48.3,268.2 19.3,-33.9 -0.2,9.8 -2.694531,-1.88828 -3.189459,55.32143 z"
   sodipodi:nodetypes="cccccc" />
		<path
   id="path849"
   class="st8"
   d="M48.3,268.2l-1.4,1.9l0.4,51.2l12.3,5.5l7.9,20.6l0-103.3l-2.8-1.9l-3.2,55.3L48.3,268.2z" />
		<path
   id="path851"
   sodipodi:nodetypes="cccc"
   class="st9"
   d="M3.1,346.7l36.1-13.5l0-51.1L3.1,346.7z" />
		<path
   id="path853"
   sodipodi:nodetypes="ccccc"
   class="st7"
   d="M 76.4,260 110.13867,241.7 110.1,217.9 99.3,217.1 Z" />
		<path
   id="path855"
   sodipodi:nodetypes="cccccc"
   class="st10"
   d="M 91.233594,296.77812 105.80056,249.73315 110.2,255.95468 V 241.60609 L 76.4,260 Z" />
		<path
   id="path857"
   sodipodi:nodetypes="ccccc"
   class="st11"
   d="M76.4,260l-0.3,61.6l5.3,11.3l9.8-36.2L76.4,260z" />
		<path
   id="path859"
   sodipodi:nodetypes="cccc"
   class="st10"
   d="M110,198.8l-10.7,18.3l10.8,0.8L110,198.8z" />
		<path
   id="path861"
   class="st11"
   d="m 151.5,234.8 0.5,13.9 2,-3.3 4.27734,52.34363 13.92813,-25.25379 z"
   sodipodi:nodetypes="cccccc" />
		<path
   id="path863"
   class="st8"
   d="m 151.5,348.3 20.4,-20.1 0.3,-55.7 -13.88828,25.09844 -4.28594,-52.28594 -2.02734,3.27266 z"
   sodipodi:nodetypes="ccccccc" />
		<path
   id="path865"
   class="st12"
   d="M180.5,331.4l-0.1-50.9l36.4,67.4L180.5,331.4z" />
		<path
   id="path867"
   class="st12"
   d="m 176.6,383.8 40.2,-35.9 -26.90496,50.70552 z"
   sodipodi:nodetypes="cccc" />
		<path
   id="path869"
   sodipodi:nodetypes="cccc"
   class="st13"
   d="M 175.84297,384.49219 180.5,331.4 l 36.3,16.5 z" />
		<path
   id="path871"
   class="st14"
   d="M 39.210156,332.36641 40.4,382.4 27.9,397.7 3.1,346.7 Z"
   sodipodi:nodetypes="ccccc" />
		<path
   id="path873"
   sodipodi:nodetypes="ccccc"
   class="st15"
   d="M47.3,321.3l-0.3,8.5l20.6,17.6l-7.1-20.9L47.3,321.3z" />
		<path
   id="path877"
   sodipodi:nodetypes="ccccc"
   class="st7"
   d="m 110.4,353.6 -19.2,-56.9 14.6,-47 4.37812,6.1 z" />
		<path
   id="path879"
   class="st11"
   d="M 110.4,353.6 143.2,258.5 110,198.8 Z"
   sodipodi:nodetypes="cccc" />
		<path
   id="path881"
   sodipodi:nodetypes="cccc"
   class="st8"
   d="M 40.4,382.4 51.5,360.8 39.208594,332.37422 Z" />
		<path
   id="path883"
   sodipodi:nodetypes="ccccc"
   class="st16"
   d="M40.4,382.4l57.5,60.1l12.1,22.1l-82.1-67L40.4,382.4z" />
		<path
   id="path870"
   class="st13"
   d="M 83.553553,324.83315 98.578466,318.55468 91.2,296.7 Z"
   sodipodi:nodetypes="cccc" />
		<path
   id="path885"
   class="st13"
   d="m 83.2,324.8 8,-28.1 z"
   sodipodi:nodetypes="ccc" />
		<path
   id="path887"
   class="st17"
   d="M176.6,383.8l-27.1,29.1l4.6,5.6l10,1.7l25.8-21.6L176.6,383.8z" />
		<path
   id="path889"
   sodipodi:nodetypes="cccccc"
   class="st16"
   d="M164.5,419.9L110,464.6l11-21.2l28.7-31l4.7,5.7L164.5,419.9z" />
		<path
   id="path891"
   sodipodi:nodetypes="ccccccc"
   class="st18"
   d="m 121.4,443.5 31,-56.5 28.1,-55.6 -31.3,49 -11.80781,-7.00547 L 110,464.6 Z" />
		<path
   id="path895"
   class="st19"
   d="m 143.2,258.5 -0.70056,99.21601 -29.40178,-11.98867 z"
   sodipodi:nodetypes="cccc" />
		<path
   id="path897"
   sodipodi:nodetypes="cccccc"
   class="st18"
   d="M 39.20625,332.37031 50.7,360.3 l 45.8,81.4 13.5,22.9 -5.82604,-19.96854 z" />
		<path
   id="path907"
   sodipodi:nodetypes="cccc"
   class="st16"
   d="m 110.2,429.7 -0.19765,34.89453 9.39843,-31.2375 z" />
		<path
   id="path872"
   sodipodi:nodetypes="cccc"
   class="st20"
   d="M121.4,443.5l59.1-112.1l-21.3,50.7L121.4,443.5z" />
		<path
   id="path874"
   sodipodi:nodetypes="cccc"
   class="st21"
   d="M121.4,443.5l19.3-21l-5.4-2.4L121.4,443.5z" />
		<path
   id="path876"
   sodipodi:nodetypes="cccccc"
   class="st22"
   d="m 140.4,422.8 36.2,-39 3.9,-52.4 -22.1,50.1 -23.44297,39.16094 z" />
		<path
   id="path878"
   class="st4"
   d="M50.7,360.3l-10.3,22.1l56.1,59.3L50.7,360.3z" />
	</g>
</g>
</svg>
